<svg 
  version="1.0" 
  xmlns="http://www.w3.org/2000/svg"
  width="500.000000pt" 
  height="500.000000pt" 
  viewBox="0 0 500.000000 500.000000"
  preserveAspectRatio="xMidYMid meet">

  <g 
    transform="translate(0.000000,500.000000) scale(0.100000,-0.100000)"
    fill="#FFFFFF"
    stroke="#0394fc"
    stroke-width="20"
  >
    <path d="M2475 4086 c-184 -45 -282 -254 -197 -421 37 -73 68 -104 150 -144
    l62 -31 0 -85 c0 -80 -1 -85 -22 -89 -142 -27 -195 -42 -265 -75 -168 -81
    -270 -180 -370 -361 -28 -51 -78 -204 -85 -260 l-3 -25 -182 -3 c-101 -1 -183
    1 -184 5 -3 33 -11 50 -30 65 -19 16 -48 18 -269 18 -321 0 -295 17 -295 -198
    0 -143 2 -162 19 -181 18 -20 28 -21 268 -21 l249 0 24 25 c21 20 25 34 25 80
    l0 55 184 0 183 0 7 -55 c8 -69 50 -205 84 -270 58 -111 127 -195 227 -275
    111 -88 196 -127 349 -158 l81 -17 3 -77 c3 -77 3 -77 -25 -84 -74 -17 -144
    -77 -186 -159 -76 -148 -17 -319 137 -397 148 -76 325 -16 404 137 22 42 26
    63 25 136 0 130 -40 199 -151 258 l-47 26 -3 83 c-3 75 -1 82 16 82 38 0 196
    51 266 86 166 84 304 229 378 399 31 70 68 209 68 254 l0 31 174 0 174 0 4
    -61 c7 -101 2 -99 303 -99 240 0 254 1 279 21 l26 20 0 159 0 159 -26 20 c-25
    20 -39 21 -281 21 l-254 0 -24 -25 c-14 -13 -25 -33 -25 -45 0 -20 -4 -20
    -171 -18 l-172 3 -22 100 c-36 157 -105 285 -214 394 -127 128 -210 167 -478
    226 -22 5 -23 10 -23 98 l0 93 41 18 c54 24 110 80 140 142 32 67 33 187 2
    256 -31 69 -103 135 -166 152 -81 23 -128 26 -182 12z m153 -156 c72 -44 94
    -145 49 -225 -29 -52 -101 -80 -164 -63 -105 26 -158 169 -93 251 44 56 146
    74 208 37z m82 -770 c118 -26 251 -101 330 -186 135 -144 195 -310 185 -509
    -6 -108 -12 -136 -46 -223 -41 -102 -149 -257 -163 -233 -4 6 -5 15 -2 19 8
    14 -13 95 -41 150 -16 33 -50 75 -91 111 l-64 59 34 33 c58 58 89 106 109 170
    84 270 -117 528 -412 529 -177 0 -334 -99 -394 -248 -41 -101 -44 -174 -10
    -277 23 -71 36 -95 86 -148 l58 -64 -55 -47 c-71 -62 -110 -132 -126 -223
    l-12 -73 -24 23 c-70 64 -153 222 -172 328 -17 91 -16 233 3 306 62 240 256
    441 482 499 60 15 262 17 325 4z m-44 -250 c89 -38 164 -150 164 -244 0 -87
    -61 -181 -147 -228 -44 -25 -58 -27 -135 -24 -103 3 -156 29 -218 107 -45 57
    -55 95 -48 184 9 105 81 190 189 219 62 18 132 12 195 -14z m-1438 -427 l-3
    -58 -150 0 -150 0 -3 58 -3 57 156 0 156 0 -3 -57z m2952 -3 l0 -50 -160 0
    -160 0 0 50 0 50 160 0 160 0 0 -50z m-1474 -244 c83 -38 144 -128 144 -210
    l0 -26 -290 0 -290 0 0 39 c0 98 66 180 170 212 14 4 68 8 120 8 80 1 103 -3
    146 -23z m71 -389 c2 -2 -29 -10 -69 -16 -75 -13 -254 -9 -318 6 l-35 8 50 6
    c49 7 365 3 372 -4z m-251 -82 c15 -60 -27 -105 -66 -70 -10 9 -24 15 -32 14
    -33 -4 -48 3 -54 26 -10 40 9 52 81 53 61 1 65 0 71 -23z m87 -410 c118 -49
    112 -234 -9 -280 -104 -39 -206 30 -206 140 0 116 107 185 215 140z"/>
    <path d="M1485 3671 c-230 -110 -256 -394 -49 -537 30 -21 54 -41 54 -45 0 -4
    -13 -48 -30 -97 -43 -130 -38 -190 17 -210 64 -22 113 29 113 117 0 40 62 179
    82 185 110 32 192 96 227 179 42 98 32 214 -27 300 -84 124 -254 172 -387 108z
    m235 -156 c102 -98 70 -247 -60 -286 -80 -24 -164 20 -199 103 -18 43 -19 53
    -7 98 23 90 73 123 174 116 53 -3 69 -9 92 -31z"/>
    <path d="M3365 3672 c-200 -95 -243 -352 -83 -499 52 -47 88 -68 138 -78 19
    -3 42 -9 51 -11 26 -7 81 -127 86 -186 7 -86 12 -98 44 -112 112 -47 149 73
    76 244 l-36 85 32 25 c67 53 97 94 118 165 35 116 10 223 -70 303 -96 95 -236
    120 -356 64z m242 -153 c98 -92 55 -253 -76 -289 -45 -12 -75 -3 -133 36 -42
    29 -58 66 -58 133 0 56 36 116 83 137 49 22 152 13 184 -17z"/>
    <path d="M1455 2194 c-29 -22 -25 -125 9 -229 14 -44 26 -84 26 -90 -1 -5 -28
    -28 -62 -50 -86 -57 -120 -119 -126 -232 -4 -78 -2 -88 27 -147 97 -198 374
    -233 524 -66 49 54 69 109 69 192 1 99 -25 169 -84 224 -37 35 -127 84 -156
    84 -29 0 -81 117 -92 208 -7 55 -16 82 -32 99 -25 27 -73 30 -103 7z m218
    -460 c30 -10 55 -28 74 -52 24 -32 28 -46 28 -104 0 -77 -18 -109 -81 -146
    -134 -79 -304 74 -238 215 25 52 96 99 155 102 8 1 36 -6 62 -15z"/>
    <path d="M3580 2188 c-14 -15 -20 -36 -20 -67 0 -50 -30 -131 -73 -198 -20
    -32 -34 -43 -52 -43 -44 0 -131 -48 -173 -96 -41 -46 -66 -104 -78 -181 -11
    -69 28 -173 85 -229 75 -74 110 -89 221 -89 113 0 168 22 237 93 106 109 98
    319 -17 426 -27 25 -54 46 -60 46 -19 0 -10 38 27 122 44 99 51 181 19 217
    -26 29 -88 29 -116 -1z m-10 -463 c54 -28 90 -84 90 -143 0 -86 -44 -140 -133
    -163 -40 -11 -49 -10 -93 12 -56 28 -82 60 -94 115 -31 135 106 241 230 179z"/>
  </g>
</svg>
